<svg width="1440" height="2328" viewBox="0 0 1440 2328" fill="none" xmlns="http://www.w3.org/2000/svg">
<g clip-path="url(#clip0_653_39)">
<rect width="1440" height="2328" fill="#1B1F28"/>
<g filter="url(#filter0_f_653_39)">
<path fill-rule="evenodd" clip-rule="evenodd" d="M1018.15 345.653C1095.67 349.196 1180.31 306.805 1241.95 354.068C1307.35 404.211 1319.41 495.919 1321.75 578.424C1324.18 663.888 1309.36 749.989 1255.08 815.933C1195.37 888.466 1111.55 955.99 1018.15 947.232C928.184 938.796 869.671 852.086 821.751 775.299C785.127 716.614 795.57 647.227 787.986 578.424C778.637 493.609 713.033 393.24 772.957 332.636C832.853 272.061 933.152 341.769 1018.15 345.653Z" fill="#5454C5"/>
</g>
<g filter="url(#filter1_f_653_39)">
<path fill-rule="evenodd" clip-rule="evenodd" d="M368.709 718.393C420.597 714.051 467.709 746.51 510.335 776.432C551.629 805.42 576.369 848.675 609.062 887.113C655.812 942.079 731.375 979.814 743.792 1050.91C756.804 1125.42 741.236 1226.53 674.561 1262.15C600.865 1301.52 515.28 1201.11 433.229 1216.83C364.392 1230.01 338.132 1340.35 268.047 1340C201.401 1339.66 164.694 1261.78 116.965 1215.23C64.4911 1164.06 -33.3401 1126.58 -25.5626 1053.67C-17.0533 973.911 92.8437 952.748 150.871 897.402C183.824 865.972 206.348 827.835 241.529 798.924C281.101 766.406 317.682 722.662 368.709 718.393Z" fill="#5454C5"/>
</g>
<g filter="url(#filter2_f_653_39)">
<path fill-rule="evenodd" clip-rule="evenodd" d="M1039.83 773.911C1088.97 786.299 1119.21 836.19 1168.04 849.787C1249.33 872.425 1355.65 817.657 1414.42 878.228C1467.7 933.142 1422.61 1027.14 1413.88 1103.16C1404.88 1181.49 1415.49 1270.7 1362.6 1329.16C1309.86 1387.46 1219.53 1382.63 1143.38 1402.16C1070.17 1420.94 992.698 1474.54 924.749 1441.44C855.61 1407.77 862.008 1304.96 816.492 1242.96C776.305 1188.22 682.238 1169.35 675.405 1101.78C668.514 1033.63 751.36 992.587 785.152 933.01C815.002 880.381 810.77 804.715 862.076 772.664C913.373 740.619 981.185 759.129 1039.83 773.911Z" fill="#220E24"/>
</g>
<g filter="url(#filter3_f_653_39)">
<path fill-rule="evenodd" clip-rule="evenodd" d="M1146.39 1342.4C1259.8 1359.41 1273.17 1502.98 1346.89 1585.74C1425.25 1673.74 1587.15 1714.44 1579.76 1828.98C1571.99 1949.24 1436.67 2026.45 1315.84 2066.7C1210.19 2101.89 1095.52 2076.93 999.761 2022.18C915.708 1974.12 875.851 1888.77 849.041 1799.8C819.626 1702.19 789.302 1597.12 845.578 1510.55C909.574 1412.11 1025.18 1324.22 1146.39 1342.4Z" fill="#5454C5"/>
</g>
<g filter="url(#filter4_f_653_39)">
<path fill-rule="evenodd" clip-rule="evenodd" d="M379.09 1325.88C460.526 1309.73 523.438 1227.57 605.749 1239.11C692.226 1251.23 797.897 1304.54 810.024 1386.29C823.254 1475.46 698.242 1527.52 660.825 1610.35C636.63 1663.9 664.011 1729.36 632.442 1779.38C598.19 1833.64 538.615 1866.19 480.055 1896.76C407.837 1934.45 330.961 2003.06 253.049 1977.39C174.278 1951.44 174.288 1843.51 125.161 1779.85C81.6973 1723.52 0.905819 1693.36 -18.0891 1626.02C-37.6545 1556.66 -19.8333 1477.8 23.2881 1418.69C64.1378 1362.68 136.929 1336.43 206.35 1318.32C263.059 1303.53 321.513 1337.3 379.09 1325.88Z" fill="#342056"/>
</g>
<g filter="url(#filter5_f_653_39)">
<path fill-rule="evenodd" clip-rule="evenodd" d="M250.636 -65.2153C313.033 -54.4324 384.918 -82.8068 433.882 -38.5744C482.436 5.28768 469.05 89.6582 493.078 153.797C520.315 226.505 600.743 284.762 583.636 361.176C566.688 436.875 478.666 457.78 416.745 494.751C363.726 526.407 310.849 560.155 250.636 559.999C190.516 559.844 139.104 523.174 85.0903 493.892C17.8157 457.42 -80.6181 447.864 -102.632 368.48C-124.711 288.865 -31.7858 226.916 -11.1565 146.824C10.7801 61.656 -43.8856 -57.7565 20.6078 -109.993C85.0544 -162.191 171.787 -78.8414 250.636 -65.2153Z" fill="#220E24"/>
</g>
<g filter="url(#filter6_f_653_39)">
<path fill-rule="evenodd" clip-rule="evenodd" d="M653.194 98.0103C717.423 97.0957 761.082 157.356 819.241 182.69C884.062 210.927 966.908 206.598 1015.19 255.701C1065.37 306.727 1080.45 380.74 1081.92 449.832C1083.41 519.635 1063.23 589.153 1023.55 648.445C984.516 706.765 931.471 765.731 859.635 781.961C789.351 797.841 725.511 730.769 653.194 732.121C578.529 733.517 507.738 822.508 441.898 789.771C376.942 757.474 396.56 663.007 380.055 596.311C367.955 547.42 369.274 498.847 357.772 449.832C342.549 384.964 271.105 321.308 301.412 261.18C330.845 202.786 427.957 216.183 490.06 187.378C547.519 160.726 588.976 98.9248 653.194 98.0103Z" fill="#342056"/>
</g>
</g>
<defs>
<filter id="filter0_f_653_39" x="248" y="-192" width="1574" height="1640" filterUnits="userSpaceOnUse" color-interpolation-filters="sRGB">
<feFlood flood-opacity="0" result="BackgroundImageFix"/>
<feBlend mode="normal" in="SourceGraphic" in2="BackgroundImageFix" result="shape"/>
<feGaussianBlur stdDeviation="250" result="effect1_foregroundBlur_653_39"/>
</filter>
<filter id="filter1_f_653_39" x="-526" y="218" width="1774" height="1622" filterUnits="userSpaceOnUse" color-interpolation-filters="sRGB">
<feFlood flood-opacity="0" result="BackgroundImageFix"/>
<feBlend mode="normal" in="SourceGraphic" in2="BackgroundImageFix" result="shape"/>
<feGaussianBlur stdDeviation="250" result="effect1_foregroundBlur_653_39"/>
</filter>
<filter id="filter2_f_653_39" x="175" y="255" width="1765" height="1697" filterUnits="userSpaceOnUse" color-interpolation-filters="sRGB">
<feFlood flood-opacity="0" result="BackgroundImageFix"/>
<feBlend mode="normal" in="SourceGraphic" in2="BackgroundImageFix" result="shape"/>
<feGaussianBlur stdDeviation="250" result="effect1_foregroundBlur_653_39"/>
</filter>
<filter id="filter3_f_653_39" x="314" y="840" width="1766" height="1743" filterUnits="userSpaceOnUse" color-interpolation-filters="sRGB">
<feFlood flood-opacity="0" result="BackgroundImageFix"/>
<feBlend mode="normal" in="SourceGraphic" in2="BackgroundImageFix" result="shape"/>
<feGaussianBlur stdDeviation="250" result="effect1_foregroundBlur_653_39"/>
</filter>
<filter id="filter4_f_653_39" x="-526" y="738" width="1837" height="1745" filterUnits="userSpaceOnUse" color-interpolation-filters="sRGB">
<feFlood flood-opacity="0" result="BackgroundImageFix"/>
<feBlend mode="normal" in="SourceGraphic" in2="BackgroundImageFix" result="shape"/>
<feGaussianBlur stdDeviation="250" result="effect1_foregroundBlur_653_39"/>
</filter>
<filter id="filter5_f_653_39" x="-606" y="-627" width="1692" height="1687" filterUnits="userSpaceOnUse" color-interpolation-filters="sRGB">
<feFlood flood-opacity="0" result="BackgroundImageFix"/>
<feBlend mode="normal" in="SourceGraphic" in2="BackgroundImageFix" result="shape"/>
<feGaussianBlur stdDeviation="250" result="effect1_foregroundBlur_653_39"/>
</filter>
<filter id="filter6_f_653_39" x="-206" y="-402" width="1788" height="1699" filterUnits="userSpaceOnUse" color-interpolation-filters="sRGB">
<feFlood flood-opacity="0" result="BackgroundImageFix"/>
<feBlend mode="normal" in="SourceGraphic" in2="BackgroundImageFix" result="shape"/>
<feGaussianBlur stdDeviation="250" result="effect1_foregroundBlur_653_39"/>
</filter>
<clipPath id="clip0_653_39">
<rect width="1440" height="2328" fill="white"/>
</clipPath>
</defs>
</svg>
