<svg width="22" height="22" viewBox="0 0 22 22" fill="none" xmlns="http://www.w3.org/2000/svg">
<g clip-path="url(#clip0_346_376)">
<path d="M8.375 17.4166C4 18.7916 4 15.125 2.25 14.6666M14.5 20.1666V16.6191C14.5328 16.182 14.4765 15.7426 14.3346 15.3301C14.1928 14.9176 13.9688 14.5415 13.6775 14.2267C16.425 13.9058 19.3125 12.815 19.3125 7.80998C19.3123 6.53016 18.8424 5.29942 18 4.37248C18.3989 3.25278 18.3707 2.01514 17.9212 0.91665C17.9212 0.91665 16.8888 0.595817 14.5 2.27332C12.4945 1.7039 10.3805 1.7039 8.375 2.27332C5.98625 0.595817 4.95375 0.91665 4.95375 0.91665C4.50433 2.01514 4.47613 3.25278 4.875 4.37248C4.02636 5.30629 3.55596 6.54816 3.5625 7.83748C3.5625 12.8058 6.45 13.8967 9.1975 14.2542C8.90962 14.5658 8.68761 14.9374 8.5459 15.3449C8.40418 15.7524 8.34596 16.1865 8.375 16.6191V20.1666" stroke="white" stroke-width="2" stroke-linecap="round" stroke-linejoin="round"/>
</g>
<defs>
<clipPath id="clip0_346_376">
<rect width="21" height="22" fill="white" transform="translate(0.5)"/>
</clipPath>
</defs>
</svg>
