<svg width="23" height="22" viewBox="0 0 23 22" fill="none" xmlns="http://www.w3.org/2000/svg">
<path d="M16.5417 5.95825H16.5508M6.91667 1.83325H16.0833C18.6146 1.83325 20.6667 3.88528 20.6667 6.41659V15.5833C20.6667 18.1146 18.6146 20.1666 16.0833 20.1666H6.91667C4.38536 20.1666 2.33333 18.1146 2.33333 15.5833V6.41659C2.33333 3.88528 4.38536 1.83325 6.91667 1.83325ZM15.1667 10.4224C15.2798 11.1853 15.1495 11.9644 14.7943 12.649C14.4391 13.3336 13.877 13.8887 13.1882 14.2355C12.4993 14.5822 11.7186 14.7029 10.9571 14.5804C10.1957 14.4578 9.49228 14.0983 8.94694 13.553C8.40159 13.0076 8.04209 12.3042 7.91956 11.5428C7.79704 10.7813 7.91773 10.0007 8.26447 9.31176C8.6112 8.62287 9.16634 8.06085 9.8509 7.70564C10.5355 7.35043 11.3146 7.22012 12.0775 7.33325C12.8557 7.44865 13.5761 7.81126 14.1324 8.36753C14.6887 8.92381 15.0513 9.64424 15.1667 10.4224Z" stroke="white" stroke-width="2" stroke-linecap="round" stroke-linejoin="round"/>
</svg>
